<svg width="321" height="321" viewBox="0 0 321 321" fill="none" xmlns="http://www.w3.org/2000/svg">
<path d="M244.275 24.6797C169.124 -21.8812 70.6921 1.39925 24.1312 76.5503C-22.4298 151.701 0.850665 250.133 76.0017 296.694C151.153 343.255 249.584 319.974 296.145 244.823C342.706 170.081 319.426 71.2407 244.275 24.6797Z" fill="#0FC1B7"/>
<g filter="url(#filter0_d)">
<path fill-rule="evenodd" clip-rule="evenodd" d="M89.2603 137.474L160.134 96.5916V178.357L101.263 212.377C95.9296 215.459 89.2603 211.61 89.2603 205.45V137.474ZM160.137 178.357V96.5916L230.938 137.474V205.443C230.938 211.604 224.265 215.453 218.932 212.368L160.137 178.357Z" fill="#485776"/>
<path d="M231.009 137.147L160.136 178.03L160.136 258.206C161.199 258.206 163.71 257.867 165.431 256.872L225.848 221.895C229.042 220.05 231.009 216.641 231.009 212.952V137.147Z" fill="#C3D0E4"/>
<path d="M89.3354 137.146V214.443C89.3354 217.209 90.8176 219.769 93.2112 221.154C117.863 235.413 130.046 242.385 155.2 256.936C156.618 257.74 158.629 258.163 160.136 258.163V178.029L89.3354 137.146Z" fill="#6D7C98"/>
<path d="M134.067 201.267C137.586 203.298 142.068 202.369 144.49 199.107L160.138 178.027L89.4828 137.216L74.9716 156.889C72.1385 160.73 73.277 166.181 77.4106 168.567L134.067 201.267Z" fill="#D9E1EF"/>
<path d="M230.721 137.216L245.268 156.812C248.118 160.651 246.986 166.117 242.846 168.508L186.156 201.252C182.629 203.289 178.134 202.351 175.717 199.073L160.138 177.953L230.721 137.216Z" fill="#D9E1EF"/>
<rect x="112.411" y="61.5066" width="99.7802" height="74.6277" rx="6" fill="#F6F8FC"/>
<path d="M112.411 67.5066C112.411 64.1929 115.097 61.5066 118.411 61.5066H206.191C209.505 61.5066 212.191 64.1929 212.191 67.5066V71.4569H112.411V67.5066Z" fill="#6D7C98"/>
<path d="M149.853 111.587V106.984L136.277 101.492L149.853 95.9222V91.3583L131.791 99.2485V103.696L149.853 111.587Z" fill="#485776"/>
<path d="M152.436 117.62H158.392L171.736 86.0208H165.779L152.436 117.62Z" fill="#485776"/>
<path d="M174.749 111.587L192.812 103.696V99.2485L174.749 91.3583V95.9222L188.325 101.492L174.749 106.984V111.587Z" fill="#485776"/>
</g>
<defs>
<filter id="filter0_d" x="69.4082" y="61.5066" width="181.437" height="204.699" filterUnits="userSpaceOnUse" color-interpolation-filters="sRGB">
<feFlood flood-opacity="0" result="BackgroundImageFix"/>
<feColorMatrix in="SourceAlpha" type="matrix" values="0 0 0 0 0 0 0 0 0 0 0 0 0 0 0 0 0 0 127 0"/>
<feOffset dy="4"/>
<feGaussianBlur stdDeviation="2"/>
<feColorMatrix type="matrix" values="0 0 0 0 0.0749306 0 0 0 0 0.12325 0 0 0 0 0.216667 0 0 0 0.5 0"/>
<feBlend mode="normal" in2="BackgroundImageFix" result="effect1_dropShadow"/>
<feBlend mode="normal" in="SourceGraphic" in2="effect1_dropShadow" result="shape"/>
</filter>
</defs>
</svg>
